<?xml version="1.0" standalone="no"?>
<!DOCTYPE svg PUBLIC "-//W3C//DTD SVG 20010904//EN"
 "http://www.w3.org/TR/2001/REC-SVG-20010904/DTD/svg10.dtd">
<svg version="1.0" xmlns="http://www.w3.org/2000/svg"
 width="587.000000pt" height="587.000000pt" viewBox="0 0 587.000000 587.000000"
 preserveAspectRatio="xMidYMid meet">
<metadata>
Created by potrace 1.14, written by Peter Selinger 2001-2017
</metadata>
<g transform="translate(0.000000,587.000000) scale(0.100000,-0.100000)"
fill="#000000" stroke="none">
<path d="M2910 5862 c0 -4 -18 -7 -40 -5 -22 1 -42 -2 -45 -7 -3 -5 -15 -6
-29 0 -12 4 -28 5 -34 1 -7 -4 -33 -8 -59 -10 -26 -1 -50 -7 -54 -12 -9 -14
-20 -13 -30 3 -5 7 -9 8 -9 2 0 -6 -12 -11 -27 -12 -16 0 -40 -3 -56 -6 -15
-3 -39 -7 -53 -10 -15 -2 -30 -10 -35 -17 -6 -10 -9 -11 -9 -1 0 6 -9 12 -20
12 -11 0 -20 -5 -20 -11 0 -6 -6 -9 -12 -6 -7 2 -21 0 -31 -5 -10 -5 -31 -12
-45 -14 -15 -3 -32 -10 -39 -16 -10 -8 -13 -7 -13 3 0 11 -2 11 -10 -1 -5 -8
-10 -11 -10 -6 0 4 -12 1 -26 -9 -14 -9 -28 -14 -31 -11 -3 3 -15 0 -27 -6
-11 -7 -24 -13 -28 -14 -5 -1 -10 -3 -13 -4 -3 -1 -9 -4 -15 -5 -5 -1 -13 -4
-17 -5 -5 -1 -11 -2 -15 -1 -5 0 -8 -4 -8 -11 0 -6 -3 -8 -7 -5 -3 4 -12 2
-20 -4 -7 -6 -13 -9 -13 -6 0 4 -23 -5 -50 -19 -28 -14 -60 -27 -72 -29 -11
-3 -28 -11 -37 -18 -9 -8 -31 -20 -48 -28 -18 -8 -33 -17 -33 -21 0 -5 -6 -8
-14 -8 -7 0 -24 -8 -37 -19 -13 -10 -27 -18 -31 -17 -4 0 -15 -6 -25 -14 -30
-26 -97 -65 -106 -62 -5 1 -6 -2 -3 -7 4 -5 -3 -12 -14 -16 -11 -3 -20 -11
-20 -16 0 -5 -6 -9 -13 -9 -7 0 -20 -9 -30 -20 -10 -12 -23 -18 -29 -14 -8 5
-9 2 -5 -9 3 -9 2 -16 -3 -14 -8 2 -80 -57 -142 -115 -10 -10 -23 -18 -29 -18
-5 0 -8 -4 -4 -9 3 -6 -4 -15 -15 -21 -11 -6 -18 -15 -15 -21 4 -5 3 -9 -2 -8
-20 3 -34 -2 -28 -11 3 -6 -1 -13 -9 -16 -9 -3 -16 -11 -16 -16 0 -6 -10 -21
-23 -33 -32 -31 -58 -65 -50 -65 4 0 0 -6 -9 -12 -17 -15 -112 -139 -128 -168
-6 -11 -7 -20 -3 -20 4 0 0 -5 -9 -10 -21 -13 -50 -69 -41 -83 3 -6 1 -7 -6
-3 -7 5 -15 -4 -22 -23 -6 -17 -15 -31 -20 -31 -5 0 -8 -3 -7 -7 0 -5 -7 -26
-17 -48 -10 -22 -18 -46 -18 -52 0 -7 -3 -13 -7 -13 -8 0 -33 -50 -35 -70 -1
-8 -9 -33 -18 -54 -10 -22 -15 -41 -13 -44 3 -2 -1 -11 -9 -19 -8 -8 -15 -25
-15 -38 0 -13 -4 -26 -9 -30 -6 -3 -8 -14 -6 -25 2 -11 -1 -20 -7 -20 -5 0 -8
-7 -4 -15 3 -8 1 -15 -4 -15 -5 0 -7 -7 -4 -15 4 -8 2 -15 -3 -15 -5 0 -10
-11 -11 -25 -5 -57 -7 -65 -15 -65 -5 0 -5 -6 2 -13 7 -10 7 -17 0 -24 -6 -6
-13 -28 -15 -49 -2 -20 -9 -41 -16 -46 -7 -4 -8 -8 -2 -8 11 0 11 -43 1 -70
-4 -8 -5 -42 -4 -75 1 -37 -3 -65 -11 -73 -7 -8 -9 -18 -6 -24 6 -9 16 -139
15 -185 0 -12 4 -25 10 -28 6 -4 6 -12 1 -18 -13 -18 -13 -59 1 -76 10 -12 9
-13 -3 -6 -13 8 -13 7 -1 -8 11 -14 11 -17 0 -17 -9 0 -10 -3 -4 -8 6 -4 11
-18 13 -32 9 -109 20 -162 35 -172 9 -6 9 -8 0 -8 -7 0 -13 -7 -13 -15 0 -8 4
-15 9 -15 5 0 9 -12 9 -26 0 -15 5 -30 12 -34 9 -6 9 -9 0 -15 -8 -5 -9 -10
-2 -14 6 -3 13 -18 15 -31 2 -14 7 -33 11 -42 4 -9 9 -25 11 -35 2 -10 4 -20
5 -23 1 -3 2 -8 1 -12 0 -5 3 -8 9 -8 5 0 7 -7 4 -15 -4 -8 -1 -15 6 -15 6 0
9 -4 6 -8 -3 -5 1 -20 9 -35 8 -15 11 -27 8 -27 -3 0 2 -11 11 -25 9 -13 16
-31 16 -40 0 -8 5 -15 12 -15 6 0 9 -3 5 -6 -6 -7 60 -141 80 -162 7 -8 10
-18 7 -24 -4 -7 -2 -8 4 -4 7 4 12 1 12 -9 0 -9 4 -13 10 -10 5 3 10 1 10 -4
0 -6 5 -11 10 -11 6 0 27 -16 47 -35 20 -19 40 -35 45 -35 8 0 19 -8 51 -36
15 -13 58 -29 70 -26 4 1 7 -3 7 -8 0 -6 6 -10 13 -10 7 0 19 -9 27 -20 8 -11
22 -20 32 -20 10 0 18 -7 18 -15 0 -8 3 -14 8 -13 6 1 32 -8 82 -29 8 -3 18
-5 23 -5 4 1 7 -3 7 -8 0 -6 7 -10 15 -10 9 0 18 -7 21 -15 10 -24 22 -17 19
11 -1 14 -12 34 -23 44 -12 11 -19 28 -17 40 2 11 -1 20 -6 20 -6 0 -7 5 -4
10 3 5 2 10 -3 10 -5 0 -9 6 -10 13 -2 20 -13 71 -19 87 -9 24 -15 53 -16 78
-1 12 -4 22 -7 22 -7 0 -9 9 -13 57 -1 17 -5 29 -8 27 -4 -2 -7 11 -7 29 -2
64 -6 97 -11 97 -3 0 -6 28 -7 63 -1 34 -3 77 -6 95 -3 17 -1 32 4 32 5 0 6 5
3 10 -4 6 -12 7 -18 3 -7 -4 -6 0 2 10 7 9 11 23 8 30 -3 8 -1 20 3 28 6 9 3
21 -8 33 -9 11 -12 17 -6 13 7 -4 11 14 12 54 1 40 -3 59 -11 59 -8 0 -7 4 2
9 10 7 15 29 16 68 0 32 4 63 8 70 4 6 1 13 -5 16 -10 3 -10 7 1 20 7 9 11 28
8 43 -2 14 1 31 7 37 14 16 16 58 2 50 -6 -4 -5 1 3 10 7 9 11 24 7 32 -3 8
-1 15 5 15 6 0 7 5 4 10 -3 6 0 10 7 10 10 0 10 2 -1 9 -10 7 -11 13 -1 31 6
12 10 31 7 41 -3 10 -1 22 4 25 5 3 7 10 4 15 -4 5 -2 9 2 9 8 0 13 20 17 67
0 11 4 19 8 16 7 -4 13 37 9 60 0 4 3 7 8 7 8 0 25 56 22 73 0 4 4 7 10 7 5 0
7 4 4 10 -3 5 0 20 7 32 6 13 13 32 15 43 2 10 9 23 16 27 6 4 8 8 3 8 -5 0
-3 6 3 13 6 8 8 17 4 20 -3 4 -2 7 4 7 6 0 14 10 18 23 4 12 8 24 10 27 1 3 6
14 10 25 5 11 11 22 15 25 10 9 65 125 62 133 -1 5 2 6 7 3 5 -3 15 2 22 11
12 14 12 16 0 8 -9 -5 -6 5 7 22 12 17 18 34 14 38 -4 5 -2 5 4 2 11 -6 29 19
26 36 -1 4 2 7 8 7 5 0 10 6 10 14 0 8 7 17 16 20 8 3 13 10 10 15 -3 5 1 12
10 15 8 3 12 10 9 16 -3 5 2 10 11 10 10 0 15 3 12 6 -3 3 14 26 38 51 24 24
41 50 37 55 -3 6 -2 9 3 6 5 -4 20 7 34 24 14 16 46 52 73 80 26 28 47 55 47
60 0 5 4 7 9 4 11 -7 73 49 64 57 -6 7 12 11 30 8 5 -1 6 3 2 8 -3 6 4 15 15
21 11 6 17 16 14 22 -4 7 -3 8 4 4 7 -4 12 -2 12 3 0 6 7 11 15 11 8 0 19 9
25 20 6 11 16 20 23 20 7 0 19 9 27 20 8 11 20 20 27 20 7 0 13 7 13 16 0 8 4
13 9 9 6 -3 19 5 30 17 12 12 21 18 21 13 0 -4 9 2 19 14 12 14 25 20 32 15 8
-4 9 -3 5 4 -4 7 -2 12 4 12 6 0 18 7 27 15 8 8 19 12 25 9 6 -4 8 -2 5 3 -7
11 9 22 26 19 5 0 13 7 18 17 6 9 14 15 20 12 5 -4 9 -1 9 5 0 6 5 8 10 5 6
-3 13 1 16 9 3 9 10 13 15 10 5 -3 9 0 9 6 0 6 4 9 9 6 5 -3 14 1 21 9 7 8 16
12 21 9 5 -3 9 0 9 5 0 6 9 11 21 11 11 0 18 4 15 9 -3 5 1 12 10 15 10 4 13
2 8 -6 -4 -7 6 -2 23 10 17 12 33 19 37 15 3 -3 6 -1 6 5 0 7 9 12 19 12 11 0
23 5 26 10 4 6 11 8 16 5 5 -4 12 1 15 9 3 9 10 14 14 11 4 -3 33 6 63 19 30
14 58 22 61 19 3 -4 6 -2 6 4 0 9 6 11 50 15 11 1 20 6 20 10 0 4 9 8 19 8 11
0 22 6 24 13 4 9 6 9 6 -1 1 -8 6 -10 14 -5 13 8 18 10 43 12 8 0 13 5 10 10
-3 4 6 7 19 5 15 -1 29 4 35 14 5 10 10 12 10 5 0 -6 8 -10 18 -8 9 2 21 4 25
4 5 1 5 7 1 14 -5 8 -2 8 9 -2 11 -9 17 -9 17 -2 0 6 10 10 23 10 31 -1 77 7
110 20 20 8 27 8 27 -2 0 -9 2 -9 8 -1 9 15 53 21 70 11 7 -5 14 -3 17 5 3 8
24 14 53 15 54 3 72 6 89 16 6 4 15 3 18 -3 5 -8 11 -7 21 1 8 6 25 9 39 7 13
-3 26 0 29 6 3 7 5 6 5 -2 1 -7 6 -10 12 -7 6 4 25 8 43 9 18 1 38 6 44 10 7
4 12 2 12 -5 0 -8 4 -8 15 1 12 10 15 10 15 0 0 -10 3 -10 15 0 8 7 15 8 15 3
0 -11 36 -11 46 0 12 12 26 8 18 -5 -6 -9 -3 -9 9 0 11 9 36 13 72 10 32 -2
55 1 55 7 0 7 3 7 8 0 9 -12 82 -13 82 -1 0 5 7 3 15 -4 12 -10 15 -10 15 1 0
9 3 10 8 4 4 -5 30 -10 57 -10 28 0 53 5 57 10 5 6 8 6 8 -1 0 -6 10 -9 24 -7
13 3 33 0 43 -6 14 -7 23 -7 31 1 7 7 12 8 12 2 0 -10 51 -11 68 0 7 4 12 2
12 -5 0 -8 4 -8 15 1 8 7 15 8 15 3 0 -5 21 -10 47 -12 26 -1 50 -4 55 -7 4
-3 8 1 8 8 0 8 3 9 8 3 4 -6 17 -10 30 -9 12 1 22 -3 22 -8 0 -5 9 -4 19 2 14
7 22 7 27 -1 4 -8 9 -7 15 2 5 8 9 9 9 3 0 -12 2 -12 83 -15 31 -1 57 -6 57
-11 0 -4 5 -8 11 -8 5 0 7 6 3 13 -6 9 -4 9 7 1 14 -12 28 -11 64 1 16 6 17 5
5 -4 -13 -9 -11 -11 8 -12 12 -1 28 -2 35 -3 6 -1 15 3 19 9 5 6 8 5 8 -3 0
-7 5 -10 11 -6 6 3 16 0 21 -7 7 -10 11 -11 14 -2 3 7 12 9 20 6 7 -3 11 -10
7 -17 -4 -7 -1 -7 9 1 8 7 18 10 21 7 3 -3 22 -7 41 -9 19 -1 43 -8 53 -16 12
-10 15 -10 9 -1 -6 10 3 11 41 6 26 -4 56 -7 66 -6 9 0 15 -3 13 -7 -3 -4 1
-8 9 -8 8 0 15 5 15 11 0 8 3 7 8 0 4 -7 25 -14 48 -17 22 -3 53 -11 67 -18
33 -15 44 -6 29 25 -9 21 -17 24 -61 23 -35 0 -57 5 -71 18 -13 12 -42 19 -90
23 -39 2 -73 9 -76 14 -3 5 -12 4 -20 -3 -9 -7 -14 -8 -14 -1 0 6 -9 9 -20 7
-11 -2 -20 0 -20 4 0 4 -6 8 -12 8 -17 0 -77 11 -108 19 -14 4 -35 7 -47 8
-13 0 -23 5 -23 10 0 4 -9 6 -20 3 -11 -3 -20 -1 -20 3 0 4 -13 7 -30 6 -16
-1 -30 1 -30 4 0 6 -33 11 -77 14 -13 0 -23 4 -23 7 0 4 -11 7 -25 8 -56 4
-65 6 -65 11 0 3 -8 6 -17 7 -10 1 -33 2 -50 4 -18 1 -33 7 -33 13 0 6 -5 4
-10 -4 -5 -8 -10 -10 -10 -5 0 6 -15 12 -32 14 -47 4 -61 7 -78 13 -8 4 -23 7
-32 7 -44 2 -54 4 -67 15 -12 9 -13 8 -6 -3 6 -11 5 -12 -6 -5 -14 8 -44 15
-84 18 -11 0 -25 7 -31 15 -8 10 -13 11 -18 2 -8 -12 -52 -5 -73 11 -7 6 -14
5 -18 -2 -4 -7 -11 -8 -18 -2 -7 5 -24 9 -39 8 -16 -1 -28 1 -28 5 0 4 -9 5
-20 2 -13 -3 -20 0 -20 8 0 9 -3 10 -8 4 -9 -12 -42 -16 -42 -4 0 4 -16 7 -35
5 -19 -1 -35 1 -35 5 0 3 -13 5 -30 4 -16 -1 -30 2 -30 7 0 6 -6 6 -14 -1 -9
-7 -17 -8 -20 -2 -3 5 -22 10 -41 11 -19 1 -51 2 -70 3 -19 1 -35 6 -35 11 0
4 -13 6 -30 4 -16 -2 -32 0 -34 6 -2 6 -5 2 -6 -9 -1 -19 -1 -19 -11 -1 -9 15
-13 16 -20 5 -5 -9 -9 -10 -9 -2 0 6 -11 10 -25 8 -14 -1 -25 3 -25 9 0 7 -3
7 -8 1 -8 -11 -34 -13 -42 -3 -3 4 -36 8 -73 9 -38 1 -67 7 -67 13 0 6 -4 6
-11 -1 -7 -7 -20 -8 -34 -3 -12 4 -28 4 -35 0 -8 -5 -21 -5 -31 0 -9 5 -19 6
-23 2 -4 -3 -11 0 -16 8 -6 8 -10 10 -10 4 0 -8 -11 -9 -35 -4 -24 5 -35 4
-35 -4 0 -6 -5 -4 -10 4 -5 8 -10 10 -10 4 0 -12 -41 -11 -59 1 -6 3 -11 0
-11 -7 0 -9 -3 -9 -10 2 -7 11 -10 11 -10 2 0 -10 -5 -10 -20 -2 -15 8 -20 8
-20 -2 0 -9 -3 -9 -10 2 -5 8 -10 10 -10 4 0 -8 -11 -9 -35 -4 -19 4 -35 4
-35 0 0 -5 -13 -5 -30 0 -16 5 -30 5 -30 2z"/>
<path d="M3860 4935 c-10 -12 -16 -13 -26 -4 -11 9 -20 4 -43 -20 -16 -17 -34
-31 -40 -31 -6 0 -11 -5 -11 -11 0 -5 -4 -7 -10 -4 -5 3 -15 -3 -22 -15 -7
-11 -18 -20 -25 -20 -7 0 -13 -4 -13 -8 0 -5 -18 -17 -40 -28 -24 -11 -38 -24
-35 -32 3 -7 1 -11 -4 -8 -5 3 -19 -3 -32 -14 -56 -46 -102 -75 -112 -72 -5 1
-6 -2 -2 -8 3 -5 1 -10 -5 -10 -6 0 -8 -6 -4 -12 4 -7 4 -10 -1 -6 -11 11 -47
-11 -39 -24 4 -6 3 -8 -3 -5 -12 8 -119 -71 -115 -85 1 -5 -2 -7 -8 -3 -14 9
-42 -14 -33 -28 3 -5 2 -7 -4 -4 -13 8 -95 -52 -88 -64 4 -5 0 -6 -7 -4 -8 3
-23 -4 -35 -15 -12 -11 -27 -20 -33 -20 -5 0 -10 -7 -10 -15 0 -8 -3 -14 -7
-13 -16 3 -43 -15 -36 -25 3 -5 1 -7 -5 -3 -6 3 -17 -1 -25 -9 -9 -8 -18 -15
-21 -15 -5 0 -16 -9 -67 -55 -9 -8 -21 -15 -27 -15 -7 0 -12 -8 -12 -17 0 -15
-2 -16 -10 -3 -8 13 -10 12 -10 -3 0 -10 -4 -16 -8 -13 -5 3 -16 -3 -25 -12
-23 -25 -40 -37 -60 -45 -10 -4 -16 -11 -13 -16 3 -5 -8 -14 -25 -20 -17 -6
-28 -15 -24 -20 3 -6 -3 -8 -15 -6 -11 2 -18 0 -15 -6 6 -8 -8 -13 -27 -10 -5
0 -7 -2 -7 -7 3 -19 -2 -33 -11 -27 -5 3 -10 1 -10 -5 0 -6 -4 -9 -8 -6 -5 3
-20 -6 -35 -20 -14 -13 -31 -24 -37 -24 -5 0 -10 -5 -10 -10 0 -6 -12 -15 -26
-20 -14 -6 -22 -15 -19 -20 4 -6 2 -9 -4 -8 -9 3 -54 -28 -92 -64 -9 -9 -20
-14 -23 -11 -3 4 -6 0 -6 -7 0 -7 -3 -11 -6 -8 -3 3 -17 -5 -31 -18 -14 -13
-29 -21 -34 -19 -4 3 -10 -4 -14 -15 -3 -11 -17 -23 -31 -26 -13 -4 -29 -15
-35 -26 -6 -11 -13 -17 -16 -15 -2 3 -13 -2 -23 -11 -37 -33 -50 -43 -50 -35
0 4 -7 -3 -16 -15 -8 -12 -22 -22 -30 -22 -8 0 -14 -4 -14 -10 0 -5 -7 -10
-16 -10 -8 0 -13 -3 -11 -7 3 -5 -2 -15 -11 -23 -9 -8 -17 -13 -18 -10 -3 7
-83 -53 -84 -62 0 -5 -7 -8 -15 -8 -8 0 -15 -3 -15 -8 0 -4 -15 -16 -34 -26
-39 -21 -53 -45 -34 -58 10 -6 10 -8 -2 -8 -13 0 -13 -1 0 -10 8 -5 10 -10 4
-10 -6 0 -11 -16 -11 -35 0 -22 4 -32 11 -28 8 5 8 3 0 -8 -5 -8 -10 -44 -10
-81 1 -36 -1 -65 -4 -63 -10 6 -5 -169 4 -184 6 -9 5 -12 -2 -7 -7 4 -10 -3
-8 -21 2 -16 -1 -34 -8 -42 -9 -12 -8 -13 8 -8 18 7 18 6 2 -17 -10 -16 -12
-27 -6 -31 12 -7 9 -43 -4 -64 -7 -11 -5 -13 9 -8 16 7 16 6 3 -15 -14 -21
-14 -26 1 -48 9 -14 11 -21 3 -16 -9 5 -11 -1 -6 -28 4 -26 2 -36 -8 -36 -9 0
-9 -3 -2 -8 13 -8 13 -61 0 -81 -7 -11 -5 -13 8 -8 11 4 15 3 10 -4 -3 -6 -6
-29 -6 -50 1 -22 -3 -37 -8 -34 -4 3 -3 -6 3 -20 11 -22 14 -23 32 -9 11 8 30
19 43 24 12 5 22 14 22 20 0 6 4 9 9 5 6 -3 15 4 21 15 6 11 16 19 23 17 7 -1
11 3 10 10 -2 8 4 10 14 6 11 -4 14 -3 9 5 -4 7 -2 12 3 12 6 0 13 0 16 0 2 0
16 12 31 25 15 14 29 23 33 21 10 -5 40 32 33 40 -4 4 -2 4 4 1 7 -4 31 9 55
28 24 18 46 32 50 29 4 -2 9 3 12 10 3 8 29 30 56 49 28 18 48 37 44 41 -4 4
1 4 11 0 14 -5 17 -4 12 4 -4 7 -1 12 8 12 9 0 16 5 16 10 0 6 7 10 16 10 8 0
12 5 9 10 -3 6 1 10 9 10 9 0 16 5 16 11 0 5 4 8 8 5 5 -3 16 3 25 12 25 27
45 42 57 42 5 0 10 4 10 9 0 5 9 13 20 16 11 3 20 13 20 21 0 8 6 13 13 12 6
-2 11 3 9 10 -1 8 2 11 8 7 7 -4 21 2 33 13 12 12 27 22 32 24 6 2 9 6 7 11
-1 4 5 7 13 7 8 0 15 5 15 10 0 6 7 10 15 10 8 0 15 5 15 10 0 6 7 10 15 10 8
0 15 7 15 16 0 8 4 13 10 9 5 -3 18 3 30 15 11 11 25 20 30 20 6 0 10 4 10 9
0 5 8 12 18 15 23 8 78 56 75 67 -2 4 3 6 10 3 13 -4 32 9 86 59 14 12 21 16
16 8 -5 -10 -4 -12 3 -7 7 4 12 14 12 22 0 8 5 12 10 9 13 -8 42 20 32 30 -4
5 -2 5 5 1 6 -3 23 5 36 18 14 14 27 23 29 20 3 -2 18 8 34 23 16 15 32 26 37
25 4 -1 7 2 7 7 0 5 20 20 45 32 25 12 43 25 40 27 -5 5 36 37 45 36 3 -1 10
6 17 15 7 9 13 13 13 9 0 -6 30 17 71 55 10 9 19 14 19 10 0 -3 9 4 20 17 11
13 20 19 20 14 0 -5 5 -1 11 9 6 9 14 15 20 12 5 -4 9 1 9 10 0 9 5 13 10 10
6 -3 10 -2 10 4 0 5 9 13 20 16 11 4 18 11 14 16 -3 5 -2 9 3 8 21 -4 33 2 33
17 0 8 4 13 10 9 12 -7 51 31 42 41 -4 4 -1 4 6 0 8 -5 21 -1 31 8 16 15 17 4
18 -194 0 -115 4 -214 9 -221 4 -8 3 -10 -4 -5 -16 10 -15 -7 1 -23 6 -8 7
-11 1 -8 -10 6 -10 -93 1 -121 2 -7 0 -10 -5 -7 -14 9 -12 -8 3 -24 6 -8 8
-11 2 -8 -11 6 -12 -410 -1 -438 3 -9 2 -13 -4 -10 -14 9 -12 -8 3 -24 6 -8 8
-11 2 -8 -12 6 -12 -404 0 -423 5 -9 4 -11 -3 -6 -14 9 -15 -3 -2 -24 7 -12
43 -15 194 -15 116 -1 183 2 179 8 -4 6 -1 7 8 1 19 -12 237 -13 269 -2 20 7
22 11 10 18 -8 6 -10 10 -5 10 6 0 10 11 10 25 0 14 -4 25 -10 25 -7 0 -7 3 0
8 6 4 10 48 10 97 0 50 -4 93 -10 97 -7 5 -7 8 0 8 6 0 10 46 10 119 0 66 -4
117 -8 114 -5 -3 -4 4 2 16 9 16 9 21 -1 21 -8 0 -9 3 -3 8 6 4 10 48 10 97 0
50 -4 93 -10 97 -7 5 -7 8 0 8 6 0 10 46 10 119 0 66 -4 117 -8 114 -5 -3 -4
4 2 16 8 14 8 21 1 21 -8 0 -8 6 0 20 8 15 8 20 -2 20 -8 0 -9 3 -3 8 12 9 14
242 2 235 -5 -3 -4 4 2 16 9 16 9 21 -1 21 -8 0 -9 3 -3 8 6 4 10 48 10 97 0
50 -4 93 -10 97 -7 5 -7 8 0 8 6 0 10 46 10 119 0 66 -4 117 -8 114 -5 -3 -4
4 2 16 9 16 9 21 -1 21 -8 0 -9 3 -3 8 6 4 10 48 10 97 0 50 -4 93 -10 97 -7
5 -7 8 0 8 6 0 10 14 10 30 0 17 -4 30 -10 30 -5 0 -4 4 3 9 8 4 13 11 13 15
-3 19 0 27 8 21 5 -3 16 4 24 15 7 11 17 17 20 14 3 -4 20 6 37 22 16 16 33
29 38 29 4 0 16 8 27 18 11 9 23 17 27 17 4 0 24 16 45 35 21 19 43 35 50 35
7 0 16 7 21 16 5 9 12 16 15 15 16 -1 36 12 31 20 -3 5 -2 8 3 7 14 -4 53 13
53 23 0 5 8 12 18 16 9 3 24 12 32 20 8 7 44 34 80 60 36 26 66 51 68 55 2 4
10 4 19 1 11 -4 14 -3 9 6 -5 7 3 15 23 22 17 6 29 15 26 19 -3 5 4 11 15 15
21 7 27 24 10 26 -5 1 -16 2 -22 3 -7 1 -19 -3 -27 -8 -11 -8 -13 -8 -8 0 4 7
-2 14 -13 17 -11 3 -22 1 -25 -4 -5 -7 -69 -7 -100 1 -5 1 -12 1 -15 0 -14 -7
-281 -6 -286 1 -3 5 -14 4 -26 -2 -16 -9 -19 -8 -13 2 6 9 2 11 -15 6 -13 -3
-31 -1 -39 6 -11 9 -13 9 -8 0 6 -9 -7 -11 -48 -8 -37 2 -55 0 -55 -8 0 -8 -3
-8 -8 -2 -9 13 -62 13 -81 1 -10 -6 -12 -5 -7 2 4 7 1 12 -8 12 -9 0 -16 -6
-16 -12 0 -9 -3 -9 -8 -3 -8 12 -61 13 -79 2 -6 -4 -15 -2 -19 4 -5 8 -3 9 6
4 9 -6 11 -4 6 4 -6 9 -13 8 -29 -6 -11 -10 -17 -13 -13 -6 8 15 -55 13 -66
-2 -5 -7 -8 -6 -8 1 0 12 -59 12 -79 0 -10 -6 -12 -5 -7 2 4 7 1 12 -8 12 -9
0 -16 -6 -16 -12 0 -9 -3 -9 -8 -3 -8 12 -61 13 -79 2 -6 -4 -15 -2 -19 4 -5
8 -3 9 6 4 9 -5 11 -4 6 3 -9 15 -11 15 -26 -3z"/>
<path d="M5060 3742 c-10 -11 -11 -17 -2 -20 7 -2 12 -8 12 -13 0 -6 -4 -7
-10 -4 -5 3 -10 -1 -10 -10 0 -10 -5 -13 -12 -9 -10 6 -9 3 0 -8 10 -13 11
-22 3 -37 -6 -11 -11 -31 -11 -45 0 -14 -5 -28 -10 -31 -6 -4 -8 -10 -5 -15 3
-5 1 -11 -4 -14 -5 -3 -7 -15 -4 -26 3 -11 1 -20 -4 -20 -9 0 -13 -13 -14 -53
0 -9 -4 -15 -9 -12 -6 3 -7 -1 -4 -9 4 -10 1 -16 -7 -16 -7 0 -9 -3 -6 -7 4
-3 1 -13 -6 -21 -10 -13 -9 -14 3 -7 13 8 13 7 1 -8 -7 -9 -11 -17 -7 -17 3 0
0 -15 -8 -34 -8 -19 -12 -37 -8 -40 3 -3 1 -6 -5 -6 -6 0 -9 -9 -6 -20 3 -12
0 -20 -7 -20 -7 0 -10 -7 -6 -16 4 -10 2 -13 -6 -8 -7 5 -9 2 -5 -8 3 -9 3
-19 -1 -23 -4 -4 -8 -11 -8 -16 -1 -5 -2 -10 -4 -11 -2 -4 -11 -41 -12 -55 -1
-7 -5 -13 -9 -13 -4 0 -10 -7 -13 -16 -3 -8 -2 -13 3 -9 5 3 0 -14 -12 -37
-11 -24 -20 -47 -19 -52 2 -4 -2 -14 -9 -22 -6 -7 -8 -18 -4 -23 3 -6 0 -8 -8
-5 -11 4 -14 -2 -12 -20 2 -14 -1 -26 -7 -26 -6 0 -8 -7 -4 -15 3 -8 1 -15 -4
-15 -6 0 -10 -9 -10 -19 0 -11 -5 -23 -10 -26 -6 -4 -8 -11 -5 -16 4 -5 1 -9
-6 -9 -7 0 -9 -3 -6 -7 4 -3 2 -12 -4 -20 -6 -7 -8 -13 -3 -13 4 0 -1 -7 -12
-15 -14 -11 -16 -15 -4 -15 12 0 11 -3 -3 -11 -9 -6 -15 -14 -12 -20 4 -5 -1
-12 -9 -15 -9 -3 -14 -10 -11 -14 3 -5 1 -11 -5 -15 -6 -4 -8 -10 -5 -15 3 -4
-2 -13 -10 -20 -8 -7 -12 -16 -9 -21 3 -5 0 -9 -6 -9 -6 0 -8 -4 -5 -10 3 -5
1 -10 -5 -10 -6 0 -8 -4 -5 -10 3 -5 1 -10 -5 -10 -6 0 -8 -4 -5 -10 3 -5 1
-10 -4 -10 -6 0 -11 -6 -11 -14 0 -8 -7 -22 -16 -30 -8 -9 -12 -21 -8 -27 4
-8 3 -9 -4 -5 -7 4 -12 1 -12 -8 0 -9 -5 -16 -11 -16 -5 0 -7 -4 -4 -10 3 -5
1 -10 -4 -10 -6 0 -11 -6 -11 -14 0 -8 -7 -17 -16 -20 -9 -4 -14 -9 -11 -12 3
-4 -1 -13 -9 -21 -8 -8 -12 -18 -9 -23 3 -4 -2 -11 -11 -14 -8 -3 -13 -9 -11
-13 6 -10 -19 -34 -27 -26 -3 4 -6 -1 -6 -10 0 -9 -4 -17 -10 -17 -5 0 -10 -5
-10 -11 0 -7 -9 -20 -21 -30 -11 -9 -20 -20 -20 -23 3 -28 -1 -35 -16 -29 -10
3 -15 3 -11 -1 4 -5 -4 -18 -18 -31 -13 -12 -24 -25 -24 -29 0 -11 -27 -36
-39 -36 -6 0 -8 -7 -4 -15 3 -9 1 -15 -4 -13 -5 2 -37 -25 -71 -60 -34 -34
-62 -60 -62 -57 0 3 -16 -9 -36 -27 -20 -18 -40 -32 -45 -30 -5 1 -9 -5 -9
-13 0 -8 -6 -15 -13 -15 -7 0 -23 -9 -35 -20 -12 -11 -24 -20 -27 -20 -3 0
-15 -9 -27 -20 -12 -11 -38 -28 -59 -38 -21 -11 -36 -22 -32 -26 3 -3 -3 -6
-15 -6 -12 0 -22 -4 -22 -9 0 -5 -13 -12 -30 -16 -16 -4 -30 -10 -30 -14 0 -6
-62 -41 -82 -47 -5 -1 -10 -3 -13 -4 -3 -1 -9 -4 -15 -5 -5 -1 -12 -4 -15 -5
-3 -1 -11 -3 -17 -4 -7 -1 -12 -7 -11 -13 1 -6 -6 -9 -17 -6 -12 3 -20 0 -20
-6 0 -7 -4 -10 -8 -7 -9 6 -84 -18 -78 -25 4 -4 -19 -7 -66 -9 -10 -1 -18 -6
-18 -12 0 -5 -7 -8 -15 -4 -8 3 -15 2 -15 -2 0 -4 -15 -8 -32 -10 -18 -1 -46
-3 -63 -5 -16 -1 -36 -6 -42 -10 -7 -5 -13 -5 -13 0 0 4 -5 1 -10 -7 -6 -10
-10 -11 -10 -3 0 15 -41 13 -52 -2 -5 -6 -8 -5 -8 3 0 16 -27 16 -33 0 -4 -9
-6 -8 -6 2 -1 9 -9 23 -18 32 -28 26 -43 46 -43 58 0 5 -3 10 -8 10 -4 0 -13
14 -20 30 -8 17 -18 27 -24 24 -6 -4 -8 -2 -4 4 3 6 -1 17 -9 25 -8 9 -15 20
-15 26 0 6 -9 16 -20 23 -11 7 -20 18 -20 25 0 7 -5 13 -12 13 -6 0 -8 3 -5 6
4 4 -3 15 -15 25 -11 11 -17 19 -13 19 5 0 0 7 -11 15 -10 8 -16 15 -12 15 3
0 -10 17 -30 38 -35 37 -82 60 -82 41 0 -5 -11 -4 -25 1 -14 5 -27 5 -30 0 -3
-5 -18 -5 -35 0 -19 5 -30 5 -30 -1 0 -6 -4 -8 -8 -5 -4 2 -56 6 -115 7 -60 1
-110 6 -113 11 -3 5 -12 4 -20 -3 -11 -9 -14 -9 -14 1 0 10 -3 10 -15 0 -8 -7
-15 -8 -15 -3 0 9 -21 12 -97 16 -13 1 -23 4 -23 7 0 3 -15 7 -32 9 -81 6 -99
8 -105 15 -3 3 -15 6 -25 6 -11 0 -17 4 -13 9 3 6 -7 6 -26 1 -18 -5 -29 -6
-25 -3 4 4 -8 12 -26 18 -23 7 -35 7 -40 0 -5 -6 -8 -5 -8 3 0 7 -4 10 -10 7
-5 -3 -10 -2 -10 2 0 5 -8 10 -17 11 -10 1 -27 3 -38 4 -11 2 -24 9 -28 16 -7
11 -11 11 -25 0 -12 -10 -14 -10 -8 0 7 11 3 13 -36 16 -7 1 -16 5 -19 9 -3 4
-16 9 -27 10 -12 1 -22 5 -22 10 0 4 -4 6 -9 2 -5 -3 -13 0 -16 6 -4 5 -13 8
-20 5 -8 -3 -15 -1 -17 4 -2 6 -15 11 -30 12 -15 1 -25 4 -23 7 7 7 -46 31
-56 25 -5 -3 -9 0 -9 7 0 7 -3 9 -7 6 -3 -4 -15 0 -25 10 -10 9 -18 13 -18 9
0 -3 -18 3 -40 14 -21 11 -46 20 -55 20 -8 0 -15 4 -15 9 0 5 -23 17 -50 26
-28 9 -69 34 -93 56 -69 66 -73 69 -85 69 -24 0 -10 -46 26 -87 20 -23 45 -53
55 -65 48 -63 77 -96 126 -145 30 -29 50 -53 45 -53 -4 0 3 -8 16 -17 44 -31
60 -47 60 -62 0 -8 3 -12 6 -8 8 8 44 -25 38 -35 -5 -7 10 -12 28 -9 5 0 7 -4
5 -10 -1 -6 7 -16 18 -22 11 -7 26 -20 33 -30 7 -9 18 -14 24 -11 7 4 8 2 4
-4 -4 -6 4 -16 16 -23 13 -7 31 -21 41 -32 9 -11 17 -17 17 -12 0 4 14 -7 30
-25 17 -18 30 -29 30 -25 0 4 12 -4 26 -19 15 -14 30 -26 35 -26 4 0 20 -11
34 -25 14 -14 25 -23 25 -19 0 4 9 -3 20 -16 11 -13 20 -20 20 -15 0 4 6 2 13
-4 8 -6 17 -7 21 -3 4 4 6 0 4 -8 -2 -9 4 -14 15 -13 10 0 16 -1 13 -4 -7 -7
38 -43 53 -43 6 0 11 -5 11 -11 0 -6 7 -8 17 -5 10 4 14 4 10 0 -10 -10 31
-36 45 -28 7 4 8 3 4 -4 -4 -7 -1 -12 8 -12 9 0 16 -5 16 -11 0 -5 4 -8 9 -5
5 3 11 -1 15 -9 3 -9 12 -12 22 -8 11 4 15 2 11 -4 -4 -6 5 -14 20 -18 14 -3
37 -15 51 -25 13 -11 28 -17 33 -14 5 3 9 0 9 -5 0 -6 6 -11 14 -11 8 0 31 -9
50 -21 20 -12 36 -17 36 -12 0 4 4 3 8 -2 12 -17 66 -49 85 -51 32 -3 36 -4
51 -20 9 -9 16 -11 16 -4 0 6 5 8 10 5 6 -4 8 -10 5 -15 -3 -4 3 -7 12 -6 9 2
28 -3 42 -10 13 -7 28 -11 33 -8 4 3 8 0 8 -5 0 -6 14 -11 30 -11 17 0 30 -4
30 -10 0 -5 11 -10 25 -10 14 0 25 -4 25 -8 0 -4 8 -8 18 -9 42 -2 72 -8 72
-13 0 -3 17 -7 38 -8 20 -2 38 -7 40 -12 2 -5 9 -7 17 -4 7 3 16 0 21 -7 4 -8
3 -10 -4 -5 -7 4 -12 1 -12 -9 0 -9 4 -13 10 -10 7 4 7 -2 1 -18 -6 -14 -7
-28 -3 -31 10 -11 11 -36 0 -30 -7 4 -7 -2 -2 -17 4 -13 7 -28 6 -34 -1 -5 -3
-21 -5 -35 -2 -14 1 -30 5 -37 5 -6 5 -14 -2 -18 -5 -3 -10 -11 -10 -16 0 -6
4 -7 10 -4 7 4 7 -3 0 -19 -6 -17 -6 -26 0 -26 6 0 9 -5 7 -12 -3 -15 25 -18
35 -3 5 6 8 4 8 -5 0 -13 1 -13 10 0 6 9 10 10 10 3 0 -13 59 -11 81 2 8 5 10
4 5 -3 -9 -15 -1 -15 26 -1 11 6 18 7 14 1 -7 -11 43 -10 62 1 7 5 12 4 12 -2
0 -13 42 -10 52 4 5 6 8 5 8 -2 0 -7 5 -13 11 -13 5 0 7 6 3 13 -6 9 -4 9 8
-1 9 -7 19 -9 22 -4 3 5 28 9 56 8 27 0 50 2 50 6 0 5 3 7 8 7 4 -1 9 0 12 1
3 1 23 3 45 4 22 1 45 4 50 7 6 3 20 4 33 3 12 0 22 2 22 6 0 4 10 6 23 6 12
-1 29 1 37 5 8 4 32 10 53 13 21 3 47 11 58 17 11 5 23 8 28 5 5 -3 14 1 21
10 11 12 15 12 21 2 7 -10 9 -10 9 1 0 7 6 11 14 8 8 -3 17 2 21 11 5 14 7 14
15 2 8 -13 10 -13 10 -1 0 8 3 11 6 8 4 -3 16 -1 28 5 11 7 24 11 29 10 4 -1
7 2 7 8 0 6 3 9 8 9 4 -1 10 0 15 1 4 1 10 3 15 5 4 1 19 7 35 13 15 7 39 17
55 24 15 6 31 12 35 12 4 1 12 8 17 16 5 8 10 11 10 7 0 -4 9 -3 20 3 11 6 18
15 16 19 -3 4 5 6 18 4 16 -3 28 2 38 16 8 11 18 18 21 14 4 -3 7 -1 7 4 0 6
8 10 17 9 9 -2 25 4 35 13 42 36 55 46 69 49 8 2 22 12 32 23 10 11 22 17 27
14 4 -3 10 2 14 10 3 8 12 15 21 15 8 0 15 5 15 10 0 6 6 10 14 10 7 0 21 11
32 24 10 14 21 23 25 20 4 -2 10 5 14 16 4 11 11 18 16 15 5 -4 9 -1 9 4 0 6
4 10 9 9 5 -2 23 12 40 29 17 18 31 31 31 29 0 -3 28 23 63 57 35 34 62 65 60
68 -1 4 4 10 13 13 8 3 13 10 10 14 -3 5 6 14 20 21 14 6 23 15 19 20 -3 5 4
13 16 16 11 4 18 9 15 12 -3 3 0 11 7 18 7 6 32 39 57 73 24 34 48 62 53 62 4
0 6 4 3 9 -3 5 4 20 17 33 12 14 23 31 25 39 2 8 9 17 15 21 6 3 12 14 13 23
1 9 10 25 18 34 9 10 16 23 16 29 0 7 5 12 10 12 6 0 9 3 8 8 -4 14 13 52 24
52 5 0 8 7 4 15 -3 8 -1 15 3 15 9 0 35 59 32 73 0 4 4 7 11 7 6 0 8 3 5 7 -4
3 0 17 8 30 9 13 13 23 9 23 -4 0 -1 7 6 15 6 8 9 19 5 25 -3 5 1 10 10 10 12
0 14 4 5 19 -8 16 -6 22 7 30 10 6 14 11 10 11 -4 0 -3 9 3 21 13 22 21 55 23
82 1 9 5 17 10 17 4 0 7 8 6 18 -1 9 1 24 5 33 4 9 8 27 10 41 1 13 6 29 10
36 4 7 2 12 -6 12 -10 0 -10 2 1 9 8 5 11 16 8 25 -4 9 -1 16 6 16 8 0 6 4 -3
10 -8 5 -10 10 -4 10 7 0 12 17 13 38 7 200 7 243 0 248 -5 3 -9 10 -9 15 0 6
4 8 8 5 5 -3 7 5 6 17 -1 12 -3 22 -4 22 -1 0 -4 18 -6 39 -3 21 -9 47 -14 57
-7 12 -6 19 3 22 9 4 9 6 -1 6 -7 1 -10 6 -7 11 3 6 0 10 -7 10 -9 0 -9 3 2
10 12 7 12 10 1 10 -7 0 -11 6 -8 15 4 8 1 17 -5 21 -7 4 -6 9 3 15 10 6 11 9
2 9 -7 0 -13 11 -13 24 0 14 -4 28 -10 31 -5 3 -10 17 -10 31 0 14 -4 23 -8
20 -4 -2 -9 4 -9 15 -1 12 2 17 10 12 7 -3 3 3 -7 15 -11 12 -16 22 -12 22 4
0 1 10 -6 23 -7 12 -11 26 -10 30 1 4 -3 18 -10 30 -7 12 -11 25 -10 30 1 4
-2 7 -8 7 -5 0 -7 7 -4 15 4 8 1 15 -5 15 -6 0 -10 3 -9 8 3 16 -15 62 -25 62
-6 0 -7 3 -4 6 3 4 1 16 -5 28 -7 11 -13 28 -14 36 -2 8 -8 16 -13 18 -6 2
-11 12 -11 23 0 10 -5 19 -11 19 -5 0 -7 5 -4 10 3 6 1 10 -4 10 -6 0 -10 3
-9 8 3 8 -32 81 -41 86 -3 2 -13 -3 -21 -12z"/>
<path d="M180 355 c0 -21 5 -25 33 -26 47 -1 121 -6 127 -9 3 -1 8 -2 13 -1 4
0 7 -4 7 -10 0 -8 6 -7 17 2 10 8 14 9 10 2 -5 -7 -1 -12 10 -12 36 -1 53 -4
53 -11 0 -3 16 -7 36 -8 20 -2 46 -8 57 -13 15 -9 18 -8 11 3 -6 11 -5 11 8 0
9 -7 30 -14 47 -15 17 -1 31 -5 31 -8 0 -3 11 -5 25 -4 14 2 25 0 25 -4 0 -4
10 -7 23 -6 12 1 27 0 32 -4 14 -8 36 -12 73 -13 17 -1 32 -5 32 -9 0 -5 14
-7 30 -5 17 2 33 0 36 -5 2 -4 11 -6 19 -2 8 3 15 0 15 -6 0 -13 22 -10 32 4
5 6 8 5 8 -3 0 -7 5 -10 10 -7 6 3 10 0 10 -7 0 -9 3 -9 10 2 5 8 10 10 10 3
0 -6 9 -9 20 -6 11 3 20 0 20 -6 0 -13 22 -10 32 4 5 6 8 5 8 -3 0 -9 7 -11
21 -7 13 5 19 3 15 -3 -3 -5 1 -12 9 -16 8 -3 17 -1 20 4 6 9 45 10 45 0 0 -3
10 -7 23 -8 44 -3 102 -10 102 -12 0 -1 18 -4 40 -6 62 -6 65 -7 65 -18 0 -7
3 -7 8 -1 8 12 52 16 52 5 0 -5 13 -7 30 -6 16 1 30 -1 30 -4 0 -4 18 -6 40
-5 28 1 41 -3 45 -14 6 -14 8 -14 16 2 7 12 14 15 22 9 16 -14 59 -18 75 -8 7
4 12 4 11 -1 -3 -20 2 -25 16 -13 11 9 15 9 15 1 0 -9 6 -9 23 0 21 12 21 11
7 -6 -8 -10 -10 -16 -3 -12 17 11 73 16 73 6 0 -4 23 -7 50 -5 27 1 50 -1 50
-5 0 -4 11 -9 25 -11 13 -3 22 -2 19 3 -5 9 56 2 97 -11 14 -4 33 -4 42 2 11
6 17 5 17 -2 0 -6 5 -8 13 -3 19 12 37 12 37 1 0 -5 21 -8 48 -7 26 1 53 0 59
-4 6 -4 14 -1 16 5 3 7 6 9 6 3 1 -5 23 -10 51 -9 27 0 50 -3 50 -7 0 -5 12
-4 27 2 20 7 28 6 35 -3 6 -10 8 -10 8 2 0 9 3 11 8 5 8 -13 22 -13 41 -1 8 5
16 4 22 -5 5 -8 9 -9 9 -4 0 12 62 14 71 1 4 -4 17 -2 30 4 17 10 24 10 27 2
3 -9 9 -9 23 -2 14 8 19 7 19 -1 0 -8 4 -8 15 1 11 9 15 9 15 1 0 -7 5 -9 13
-4 20 12 37 12 37 0 0 -7 5 -5 10 3 5 8 10 10 10 4 0 -12 29 -12 48 0 6 4 12
3 12 -3 0 -7 8 -7 27 0 14 5 29 6 32 2 8 -10 32 -10 49 0 6 5 12 4 12 -2 0 -7
8 -7 25 -1 17 6 25 6 25 -1 0 -6 5 -7 12 -3 16 10 58 12 58 2 0 -4 12 -3 27 3
20 7 28 6 35 -3 6 -10 8 -10 8 1 0 8 3 12 6 8 3 -3 17 -2 30 3 15 6 26 6 30
-1 4 -7 10 -7 18 0 9 7 16 7 24 -1 9 -9 12 -9 12 2 0 13 2 13 10 0 6 -9 10
-10 10 -3 0 6 9 10 20 8 11 -2 20 1 20 6 0 6 6 7 17 1 9 -6 29 -6 48 -1 17 5
63 10 102 11 39 2 69 6 67 9 -2 3 10 6 26 5 17 -1 30 -5 30 -11 0 -5 4 -4 8 2
11 17 85 27 76 10 -4 -7 1 -5 12 3 10 9 36 16 57 15 20 0 37 3 37 7 0 5 3 7 8
7 4 -1 9 -1 12 1 18 7 79 6 74 -1 -3 -5 15 0 40 11 32 13 46 16 46 7 0 -8 3
-8 8 -2 4 6 25 11 47 13 66 4 70 4 80 13 6 4 25 6 43 4 17 -2 34 0 36 4 3 4
19 7 35 6 17 -1 28 1 26 5 -3 4 9 10 26 14 17 3 28 10 25 15 -3 5 3 7 15 4 12
-4 25 0 30 8 5 8 9 9 9 3 0 -6 7 -11 15 -11 8 0 15 3 15 7 0 3 15 7 33 9 60 6
67 7 73 13 3 4 13 4 22 1 11 -5 13 -3 7 7 -6 9 -4 11 6 5 18 -12 69 -7 86 7 8
6 26 12 40 13 15 0 28 6 30 11 2 6 15 9 28 6 14 -2 31 0 38 5 6 5 22 8 35 7
12 0 22 3 22 8 0 5 9 7 19 3 11 -3 22 -1 25 4 4 6 13 8 21 4 8 -3 15 0 15 7 0
9 4 9 13 2 7 -6 18 -7 25 -3 6 4 25 6 42 5 19 -1 28 2 23 9 -4 6 0 8 10 4 10
-4 17 -2 17 5 0 7 5 6 15 -2 11 -9 15 -9 15 -1 0 7 5 9 10 6 6 -3 10 4 10 17
0 18 -2 20 -10 8 -5 -8 -10 -10 -10 -5 0 6 -9 11 -20 12 -11 1 -20 -3 -20 -8
0 -6 -5 -7 -12 -3 -19 12 -68 12 -68 0 0 -6 -4 -5 -9 2 -11 19 -15 19 -34 4
-9 -8 -18 -9 -21 -3 -4 6 -18 6 -39 0 -17 -5 -49 -7 -69 -6 -22 2 -38 -1 -38
-7 0 -7 -3 -8 -8 -1 -9 13 -102 14 -102 1 0 -6 -5 -5 -11 1 -8 8 -20 8 -36 2
-18 -6 -22 -6 -17 3 5 8 2 9 -11 5 -9 -4 -25 -2 -33 5 -13 11 -14 11 -7 -1 6
-11 2 -13 -19 -7 -15 4 -25 3 -22 -2 3 -4 -17 -6 -43 -2 -26 3 -60 3 -74 -1
-15 -4 -25 -4 -23 -1 2 4 -38 7 -90 7 -53 0 -94 -4 -94 -9 0 -6 -5 -5 -11 1
-8 8 -20 8 -36 2 -13 -5 -22 -6 -20 -1 3 4 -74 6 -171 5 -122 -1 -182 2 -191
10 -10 8 -13 8 -8 1 5 -8 -18 -11 -77 -12 -46 0 -90 -3 -97 -7 -7 -5 -10 -4
-6 2 4 6 -17 9 -56 7 -37 -2 -67 2 -76 9 -9 8 -12 8 -8 1 5 -8 -18 -11 -77
-12 -46 0 -90 -3 -97 -7 -6 -5 -10 -4 -6 1 3 5 -100 9 -249 9 -154 0 -254 -4
-254 -10 0 -5 -5 -4 -11 2 -8 8 -20 8 -36 2 -18 -6 -22 -6 -17 3 5 8 2 9 -11
5 -9 -4 -25 -2 -33 5 -9 7 -13 8 -9 2 5 -8 -18 -11 -77 -12 -46 0 -90 -3 -97
-7 -6 -5 -10 -4 -6 1 3 5 -35 9 -89 9 -53 0 -94 -4 -94 -10 0 -5 -5 -4 -11 2
-8 8 -20 8 -36 2 -13 -5 -22 -6 -20 -1 3 4 -74 6 -171 5 -122 -1 -182 2 -191
10 -11 9 -13 9 -8 1 8 -14 -352 -16 -370 -2 -7 5 -14 5 -18 -2 -5 -8 -10 -8
-20 0 -9 8 -15 8 -20 0 -3 -6 -12 -7 -18 -3 -18 11 -67 10 -67 -2 0 -7 -3 -6
-8 1 -9 14 -62 13 -62 0 0 -6 -4 -5 -9 2 -10 17 -22 17 -32 1 -6 -10 -11 -10
-22 0 -11 8 -17 9 -22 1 -3 -6 -11 -7 -17 -4 -18 12 -79 14 -72 3 4 -7 -1 -7
-14 0 -27 14 -35 14 -26 -2 6 -9 4 -9 -8 1 -11 9 -18 10 -23 2 -3 -6 -11 -7
-17 -4 -18 12 -79 14 -72 3 4 -7 -1 -7 -15 0 -16 9 -21 9 -21 -1 0 -10 -3 -9
-9 1 -8 12 -12 12 -25 2 -9 -8 -16 -9 -16 -4 0 5 -9 9 -20 10 -12 1 -18 -3
-14 -9 4 -6 -2 -6 -15 1 -16 9 -21 9 -21 -1 0 -10 -2 -10 -8 -1 -8 12 -29 13
-49 0 -6 -4 -15 -3 -18 3 -5 8 -12 7 -22 -2 -19 -16 -17 -16 -36 0 -11 9 -17
10 -22 2 -4 -7 -11 -8 -18 -1 -15 12 -27 12 -49 0 -10 -5 -19 -5 -22 0 -3 5
-32 8 -63 6 -32 -1 -66 2 -75 7 -27 13 -97 18 -104 7 -4 -6 -11 -6 -19 1 -8 7
-16 7 -19 2 -6 -11 -56 -9 -74 1 -5 4 -12 2 -14 -4 -3 -9 -9 -9 -26 0 -20 11
-22 9 -22 -14z"/>
</g>
</svg>
